<svg id="svg" version="1.1" width="400" height="102.8999064546305" viewBox="0 0 400 102.8999064546305" xmlns="http://www.w3.org/2000/svg" xmlns:xlink="http://www.w3.org/1999/xlink" ><g id="svgg"><path id="path0" d="M180.961 28.760 C 180.937 28.783,180.692 28.839,180.417 28.884 C 178.671 29.168,177.610 29.666,176.667 30.643 C 176.017 31.316,174.833 32.886,174.833 33.074 C 174.833 33.109,174.440 33.733,173.958 34.459 C 173.477 35.186,172.877 36.111,172.625 36.515 C 172.373 36.919,171.758 37.887,171.259 38.667 C 170.435 39.952,169.519 41.415,169.083 42.139 C 168.992 42.292,168.692 42.755,168.417 43.169 C 168.142 43.583,167.842 44.042,167.750 44.188 C 167.658 44.334,167.463 44.633,167.317 44.852 C 167.170 45.071,166.243 46.525,165.257 48.083 C 164.270 49.642,163.150 51.404,162.767 52.000 C 162.384 52.596,161.998 53.202,161.910 53.347 C 161.822 53.492,161.458 54.054,161.102 54.597 C 160.745 55.139,160.126 56.081,159.727 56.689 C 159.327 57.297,159.000 57.872,159.000 57.967 C 159.000 58.061,158.944 58.164,158.875 58.194 C 158.703 58.271,157.901 59.481,157.651 60.042 C 157.539 60.294,157.384 60.500,157.307 60.500 C 157.230 60.500,157.167 60.607,157.167 60.738 C 157.167 60.869,157.057 61.086,156.923 61.220 C 156.789 61.354,156.445 61.865,156.157 62.357 C 155.870 62.848,155.479 63.419,155.288 63.625 C 155.098 63.831,155.011 64.001,155.096 64.003 C 155.181 64.004,155.169 64.060,155.069 64.128 C 154.969 64.195,154.671 64.625,154.407 65.083 C 154.143 65.542,153.699 66.229,153.421 66.610 C 153.144 66.992,152.654 67.736,152.333 68.264 C 152.012 68.792,151.582 69.492,151.376 69.820 C 151.171 70.148,150.949 70.529,150.885 70.667 C 150.820 70.804,150.632 71.062,150.467 71.240 C 150.302 71.417,150.167 71.624,150.167 71.699 C 150.167 71.774,149.833 72.313,149.424 72.897 C 149.016 73.481,148.728 74.006,148.785 74.063 C 148.842 74.120,151.161 74.167,153.937 74.167 L 158.985 74.167 159.667 73.042 C 160.309 71.982,161.008 70.876,164.745 65.000 C 165.590 63.671,166.687 61.908,167.183 61.083 C 167.678 60.258,168.129 59.546,168.184 59.500 C 168.240 59.454,168.608 58.892,169.002 58.250 C 170.036 56.569,171.204 54.704,171.544 54.192 C 171.705 53.949,171.883 53.619,171.938 53.458 C 171.994 53.298,172.096 53.167,172.166 53.167 C 172.236 53.167,172.389 52.935,172.506 52.652 C 172.623 52.370,172.817 52.040,172.938 51.920 C 173.058 51.799,173.365 51.364,173.620 50.952 C 175.043 48.651,176.097 46.970,176.669 46.083 C 177.025 45.533,177.609 44.596,177.967 44.000 C 179.011 42.264,180.484 39.965,180.885 39.445 L 181.255 38.965 182.336 40.737 C 182.930 41.711,183.658 42.863,183.953 43.296 C 184.247 43.729,184.582 44.271,184.697 44.500 C 184.811 44.729,185.214 45.404,185.593 46.000 C 185.971 46.596,186.527 47.496,186.829 48.000 C 187.130 48.504,187.423 48.954,187.480 49.000 C 187.629 49.120,187.975 49.690,188.163 50.124 C 188.252 50.330,188.701 51.051,189.162 51.728 C 189.623 52.404,190.000 53.005,190.000 53.064 C 190.000 53.170,191.165 55.003,191.336 55.167 C 191.384 55.212,191.517 55.438,191.631 55.667 C 191.745 55.896,192.096 56.496,192.412 57.000 C 192.728 57.504,192.990 57.973,192.994 58.042 C 192.997 58.110,187.902 58.167,181.672 58.167 C 170.953 58.167,170.350 58.182,170.452 58.458 C 170.599 58.855,171.387 60.070,171.542 60.139 C 171.610 60.169,171.667 60.273,171.667 60.369 C 171.667 60.465,171.929 60.909,172.250 61.355 C 172.571 61.802,172.833 62.228,172.833 62.302 C 172.833 62.376,172.965 62.587,173.125 62.769 C 173.433 63.120,173.549 63.297,174.265 64.500 C 174.511 64.912,174.893 65.494,175.114 65.792 L 175.517 66.333 187.088 66.333 L 198.659 66.333 198.938 66.792 C 199.091 67.044,199.543 67.755,199.942 68.373 C 200.340 68.991,200.667 69.562,200.667 69.642 C 200.667 69.723,200.824 69.988,201.015 70.232 C 201.207 70.476,201.538 71.002,201.750 71.401 C 201.963 71.800,202.424 72.583,202.776 73.141 L 203.417 74.156 208.448 74.161 C 211.216 74.164,213.512 74.110,213.552 74.042 C 213.591 73.973,212.959 72.904,212.148 71.667 C 211.337 70.429,210.621 69.304,210.556 69.167 C 210.492 69.029,209.681 67.754,208.756 66.333 C 206.759 63.268,204.880 60.352,204.417 59.597 C 203.290 57.762,201.388 54.801,200.872 54.078 C 200.805 53.984,200.608 53.646,200.434 53.328 C 200.261 53.010,199.988 52.600,199.829 52.417 C 199.669 52.233,199.407 51.821,199.246 51.500 C 199.085 51.179,198.903 50.879,198.842 50.833 C 198.780 50.788,198.439 50.262,198.083 49.667 C 197.728 49.071,197.388 48.546,197.329 48.500 C 197.270 48.454,197.020 48.070,196.774 47.646 C 196.285 46.804,194.602 44.183,194.379 43.917 C 194.302 43.825,194.060 43.450,193.841 43.083 C 193.622 42.717,193.107 41.892,192.696 41.250 C 192.285 40.608,191.710 39.708,191.418 39.250 C 190.263 37.436,188.607 34.880,188.149 34.203 C 187.884 33.811,187.667 33.429,187.667 33.354 C 187.667 33.279,187.513 33.041,187.326 32.825 C 187.138 32.608,186.825 32.166,186.630 31.841 C 185.879 30.591,184.446 29.489,183.049 29.088 C 182.565 28.949,181.017 28.705,180.961 28.760 M374.250 29.152 C 368.569 30.731,369.640 39.146,375.525 39.163 C 377.603 39.169,379.904 37.675,380.243 36.099 C 380.265 35.999,380.367 35.709,380.471 35.456 C 381.815 32.181,377.841 28.154,374.250 29.152 M41.660 29.222 C 41.618 29.259,41.021 29.345,40.333 29.412 C 39.646 29.478,38.971 29.550,38.833 29.572 C 37.772 29.737,37.058 29.888,36.917 29.975 C 36.825 30.032,36.712 30.086,36.667 30.095 C 36.621 30.104,36.471 30.156,36.333 30.210 C 36.196 30.263,35.613 30.464,35.037 30.655 C 34.462 30.846,33.862 31.068,33.704 31.148 C 33.546 31.227,33.154 31.416,32.833 31.567 C 27.206 34.212,21.597 41.449,20.910 46.949 C 20.885 47.150,20.824 47.380,20.775 47.460 C 20.473 47.948,20.299 53.340,20.537 54.833 C 20.820 56.615,22.128 60.870,22.484 61.167 C 22.538 61.212,22.804 61.720,23.074 62.295 C 23.343 62.869,23.686 63.470,23.835 63.631 C 23.985 63.791,24.305 64.261,24.548 64.675 C 27.007 68.870,33.102 72.664,39.250 73.826 C 41.141 74.183,70.525 74.294,71.917 73.949 C 72.192 73.881,72.829 73.742,73.333 73.641 C 79.551 72.390,85.964 67.734,88.334 62.750 C 88.464 62.475,88.690 62.063,88.834 61.833 C 90.754 58.788,91.731 52.306,90.944 47.833 C 90.495 45.282,88.311 39.781,87.646 39.528 C 87.566 39.497,87.500 39.399,87.500 39.311 C 87.500 38.508,81.595 32.667,80.783 32.667 C 80.723 32.667,80.263 32.404,79.761 32.083 C 78.398 31.211,75.328 30.089,72.833 29.551 C 71.662 29.298,41.923 28.984,41.660 29.222 M95.749 29.542 C 95.699 29.748,95.679 39.854,95.704 52.000 L 95.750 74.083 100.083 74.083 L 104.417 74.083 104.459 55.625 L 104.501 37.167 118.553 37.167 C 134.767 37.167,134.852 37.173,136.892 38.639 C 141.730 42.114,140.394 49.727,134.664 51.344 C 134.085 51.507,131.068 51.545,121.277 51.513 C 110.533 51.477,108.645 51.506,108.693 51.704 C 108.741 51.900,110.391 53.430,111.810 54.594 C 112.026 54.772,112.401 55.107,112.643 55.341 C 112.885 55.574,113.255 55.883,113.465 56.028 C 113.675 56.172,114.200 56.624,114.632 57.032 C 115.532 57.882,116.703 58.920,117.981 60.000 C 118.469 60.413,119.037 60.900,119.244 61.083 C 119.451 61.267,120.774 62.419,122.185 63.645 C 123.596 64.871,125.057 66.146,125.433 66.478 C 125.808 66.811,126.551 67.458,127.084 67.917 C 127.616 68.375,128.172 68.870,128.318 69.018 C 128.464 69.165,129.221 69.829,130.000 70.494 C 131.639 71.892,133.194 73.249,133.777 73.790 L 134.184 74.167 140.425 74.167 C 143.858 74.167,146.667 74.119,146.667 74.061 C 146.667 73.944,146.206 73.501,145.326 72.774 C 145.009 72.512,144.384 71.987,143.937 71.607 C 142.162 70.099,141.499 69.543,140.333 68.583 C 139.665 68.033,138.766 67.283,138.335 66.917 C 137.905 66.550,137.189 65.950,136.745 65.583 C 136.300 65.217,135.589 64.617,135.163 64.250 C 134.738 63.883,134.069 63.321,133.677 63.000 C 133.285 62.679,132.798 62.267,132.594 62.083 C 132.390 61.900,131.857 61.450,131.410 61.083 C 130.964 60.717,130.412 60.259,130.185 60.065 L 129.771 59.714 132.677 59.624 C 135.499 59.537,137.597 59.234,138.386 58.800 C 138.586 58.689,138.825 58.586,138.917 58.570 C 139.186 58.524,141.863 57.171,142.000 57.013 C 142.046 56.960,142.458 56.621,142.917 56.260 C 143.822 55.546,145.333 54.017,145.333 53.816 C 145.333 53.747,145.460 53.564,145.615 53.409 C 145.912 53.111,146.313 52.463,146.793 51.500 C 146.952 51.179,147.122 50.879,147.170 50.833 C 147.365 50.646,147.676 49.763,148.006 48.461 C 148.198 47.703,148.394 46.933,148.441 46.750 C 150.050 40.444,144.717 31.887,137.952 29.920 C 135.501 29.207,134.430 29.173,114.628 29.170 L 95.840 29.167 95.749 29.542 M230.983 29.231 C 230.946 29.263,230.167 29.337,229.250 29.395 C 227.428 29.511,225.583 29.923,223.945 30.578 C 223.365 30.810,222.839 31.000,222.777 31.000 C 220.851 31.000,214.236 36.617,212.569 39.667 C 212.393 39.987,212.206 40.287,212.152 40.333 C 211.947 40.509,210.694 43.276,210.586 43.792 C 210.524 44.090,210.404 44.333,210.320 44.333 C 210.236 44.333,210.167 44.516,210.167 44.740 C 210.167 44.964,210.102 45.187,210.022 45.236 C 209.894 45.316,209.721 46.044,209.407 47.833 C 208.950 50.440,209.117 54.831,209.763 57.221 C 210.290 59.168,210.232 58.988,210.545 59.667 C 210.692 59.987,210.940 60.606,211.096 61.042 C 211.251 61.477,211.456 61.833,211.550 61.833 C 211.645 61.833,211.677 61.879,211.621 61.935 C 211.050 62.506,216.228 68.505,218.583 70.003 C 219.133 70.352,219.698 70.739,219.837 70.861 C 220.188 71.169,223.221 72.633,223.787 72.769 C 224.042 72.830,224.325 72.931,224.417 72.995 C 224.508 73.058,225.221 73.245,226.000 73.410 C 226.779 73.575,227.818 73.807,228.309 73.927 C 229.311 74.171,257.746 74.279,258.113 74.040 C 258.221 73.970,258.596 73.425,258.946 72.829 C 259.297 72.233,259.718 71.559,259.883 71.331 C 260.048 71.103,260.698 70.092,261.326 69.083 C 261.954 68.075,262.625 67.051,262.818 66.807 C 263.010 66.563,263.167 66.320,263.167 66.265 C 263.167 66.211,256.210 66.165,247.708 66.164 C 238.954 66.162,231.587 66.091,230.722 66.000 C 224.547 65.349,219.359 60.792,218.065 54.880 C 217.549 52.526,217.783 48.174,218.495 46.866 C 218.580 46.711,218.878 46.086,219.158 45.478 C 221.175 41.084,225.566 37.960,230.550 37.372 C 231.118 37.305,237.405 37.250,244.521 37.250 L 257.459 37.250 257.771 36.731 C 258.497 35.524,259.698 33.644,261.309 31.191 C 261.873 30.334,262.333 29.527,262.333 29.398 C 262.333 29.184,231.227 29.018,230.983 29.231 M267.000 49.760 C 267.000 72.890,266.922 71.449,268.238 72.752 C 269.771 74.270,268.129 74.167,290.801 74.167 L 310.656 74.167 311.766 72.458 C 312.376 71.519,313.016 70.547,313.188 70.298 C 313.359 70.050,313.500 69.811,313.500 69.767 C 313.500 69.724,313.837 69.195,314.250 68.592 C 314.662 67.990,315.000 67.422,315.000 67.332 C 315.000 67.241,315.063 67.167,315.140 67.167 C 315.274 67.167,315.667 66.446,315.667 66.200 C 315.667 66.136,306.667 66.103,295.667 66.126 L 275.667 66.169 275.667 47.668 L 275.667 29.167 271.333 29.167 L 267.000 29.167 267.000 49.760 M333.750 29.347 C 329.900 29.716,325.216 31.552,322.677 33.687 C 321.475 34.696,321.304 34.833,321.242 34.833 C 321.131 34.833,318.757 37.348,318.594 37.638 C 318.508 37.790,318.271 38.094,318.068 38.314 C 317.865 38.533,317.598 38.908,317.474 39.148 C 317.351 39.387,317.158 39.680,317.046 39.799 C 314.853 42.121,313.139 50.164,313.843 54.833 C 314.239 57.456,316.068 62.584,316.816 63.167 C 316.875 63.212,317.017 63.438,317.132 63.667 C 317.808 65.017,320.186 67.723,321.917 69.110 C 325.073 71.641,328.140 72.990,332.667 73.841 C 335.247 74.326,362.625 74.243,362.898 73.750 C 363.000 73.567,363.122 73.379,363.170 73.333 C 363.218 73.287,363.589 72.725,363.994 72.083 C 364.398 71.442,365.365 69.942,366.141 68.750 C 366.917 67.558,367.582 66.471,367.618 66.333 C 367.676 66.112,365.867 66.087,351.967 66.118 C 336.937 66.152,334.178 66.085,333.250 65.663 C 333.067 65.580,332.467 65.364,331.917 65.185 C 330.565 64.743,329.446 64.253,329.156 63.977 C 329.024 63.852,328.617 63.555,328.250 63.317 C 327.382 62.753,325.717 61.090,325.084 60.155 C 324.809 59.749,324.541 59.379,324.489 59.333 C 324.309 59.176,323.198 56.750,323.096 56.292 L 322.994 55.835 341.275 55.792 L 359.556 55.750 359.820 55.307 C 359.965 55.063,360.421 54.348,360.833 53.718 C 361.246 53.088,361.658 52.454,361.750 52.309 C 361.842 52.165,362.037 51.867,362.184 51.648 C 362.974 50.474,364.667 47.811,364.667 47.744 C 364.667 47.702,355.292 47.667,343.833 47.667 C 332.375 47.667,323.000 47.604,323.000 47.528 C 323.000 47.041,323.774 45.185,324.257 44.512 C 324.574 44.071,324.833 43.650,324.833 43.576 C 324.833 43.392,326.473 41.510,327.079 41.001 C 327.351 40.771,327.708 40.452,327.871 40.292 C 328.033 40.131,328.242 40.000,328.333 40.000 C 328.425 40.000,328.501 39.944,328.501 39.875 C 328.502 39.806,328.671 39.668,328.876 39.567 C 329.082 39.466,329.775 39.114,330.417 38.784 C 331.441 38.257,333.190 37.688,334.750 37.374 C 335.025 37.319,341.286 37.247,348.664 37.215 L 362.078 37.157 362.807 35.953 C 363.208 35.292,363.635 34.637,363.757 34.500 C 363.878 34.362,364.079 34.062,364.204 33.833 C 364.329 33.604,365.009 32.539,365.716 31.466 C 366.422 30.393,367.000 29.436,367.000 29.338 C 367.000 29.129,335.928 29.137,333.750 29.347 M377.083 30.577 C 378.457 31.143,379.313 32.410,379.360 33.949 C 379.486 38.039,374.006 39.444,372.197 35.785 C 370.580 32.517,373.707 29.185,377.083 30.577 M373.609 31.242 C 373.549 31.399,373.500 32.721,373.500 34.180 L 373.500 36.833 374.167 36.833 L 374.833 36.833 374.833 35.738 C 374.833 34.262,375.284 34.267,376.063 35.750 C 376.529 36.636,376.653 36.756,377.149 36.804 C 378.007 36.886,378.058 36.660,377.420 35.601 L 376.839 34.636 377.253 34.094 C 377.872 33.282,377.858 32.353,377.216 31.666 C 376.591 30.998,373.828 30.673,373.609 31.242 M375.875 32.243 C 376.248 32.322,376.333 32.430,376.333 32.827 C 376.333 33.392,376.289 33.431,375.457 33.587 L 374.833 33.704 374.833 32.867 C 374.833 31.967,374.764 32.009,375.875 32.243 M70.167 37.375 C 75.832 38.620,79.883 41.770,81.498 46.186 C 81.712 46.771,81.960 47.344,82.048 47.458 C 82.136 47.573,82.163 47.667,82.108 47.667 C 82.053 47.667,82.080 47.856,82.168 48.088 C 82.645 49.341,82.767 52.058,82.433 53.973 C 81.790 57.660,79.453 61.464,76.695 63.315 C 76.358 63.540,76.046 63.768,76.000 63.822 C 75.558 64.338,72.356 65.540,70.417 65.919 C 69.071 66.181,43.855 66.252,41.731 66.000 C 36.624 65.392,32.175 61.972,30.022 57.000 C 27.475 51.120,30.003 43.174,35.535 39.671 C 36.112 39.306,36.674 38.930,36.785 38.837 C 36.895 38.743,37.085 38.667,37.206 38.667 C 37.327 38.667,37.579 38.560,37.766 38.429 C 38.208 38.118,40.807 37.486,42.083 37.378 C 42.633 37.331,43.118 37.261,43.160 37.222 C 43.274 37.118,69.678 37.268,70.167 37.375 " stroke="none" fill="#ff141d" fill-rule="evenodd"></path><path id="path1" d="M141.667 31.546 C 141.667 31.578,141.910 31.782,142.208 32.001 C 142.544 32.246,142.660 32.286,142.514 32.106 C 142.292 31.833,141.667 31.420,141.667 31.546 M375.333 32.290 C 375.653 32.329,376.028 32.448,376.166 32.555 C 376.384 32.725,376.387 32.712,376.188 32.458 C 376.036 32.265,375.756 32.176,375.355 32.193 L 374.750 32.220 375.333 32.290 M145.164 34.751 C 145.828 35.551,145.884 35.602,145.703 35.248 C 145.608 35.064,145.355 34.764,145.140 34.583 C 144.764 34.264,144.765 34.270,145.164 34.751 M84.590 35.672 C 85.136 36.270,85.617 36.736,85.659 36.707 C 85.700 36.678,85.253 36.188,84.665 35.619 L 83.596 34.583 84.590 35.672 M215.242 36.042 L 214.583 36.750 215.292 36.091 C 215.681 35.729,216.000 35.410,216.000 35.383 C 216.000 35.257,215.855 35.383,215.242 36.042 M372.500 36.277 C 372.500 36.367,372.706 36.624,372.958 36.846 L 373.417 37.250 373.000 36.750 C 372.771 36.475,372.565 36.219,372.542 36.181 C 372.519 36.142,372.500 36.186,372.500 36.277 M373.792 36.951 C 373.998 36.991,374.335 36.991,374.542 36.951 C 374.748 36.911,374.579 36.879,374.167 36.879 C 373.754 36.879,373.585 36.911,373.792 36.951 M376.877 36.953 C 377.131 36.991,377.506 36.990,377.711 36.951 C 377.916 36.911,377.708 36.880,377.250 36.881 C 376.792 36.882,376.624 36.915,376.877 36.953 M223.654 40.112 L 223.250 40.557 223.703 40.237 C 223.952 40.061,224.159 39.860,224.161 39.792 C 224.170 39.586,224.079 39.644,223.654 40.112 M326.573 41.542 L 326.083 42.083 326.625 41.594 C 327.130 41.138,327.243 41.000,327.115 41.000 C 327.086 41.000,326.842 41.244,326.573 41.542 M29.050 51.667 C 29.050 52.171,29.081 52.377,29.119 52.125 C 29.158 51.873,29.158 51.460,29.119 51.208 C 29.081 50.956,29.050 51.163,29.050 51.667 M208.944 51.278 C 208.792 51.430,208.804 52.167,208.958 52.167 C 209.027 52.167,209.083 51.942,209.083 51.667 C 209.083 51.392,209.077 51.167,209.069 51.167 C 209.062 51.167,209.006 51.217,208.944 51.278 M31.833 60.219 C 31.833 60.248,32.077 60.491,32.375 60.760 L 32.917 61.250 32.427 60.708 C 31.971 60.203,31.833 60.090,31.833 60.219 M25.333 66.052 C 25.333 66.081,25.577 66.325,25.875 66.594 L 26.417 67.083 25.927 66.542 C 25.471 66.037,25.333 65.923,25.333 66.052 M85.409 66.875 L 84.750 67.583 85.458 66.925 C 86.117 66.312,86.243 66.167,86.117 66.167 C 86.090 66.167,85.771 66.485,85.409 66.875 M26.820 67.727 C 27.042 68.001,27.667 68.414,27.667 68.287 C 27.667 68.255,27.423 68.051,27.125 67.833 C 26.790 67.587,26.673 67.547,26.820 67.727 M131.667 72.052 C 131.667 72.081,131.910 72.325,132.208 72.594 L 132.750 73.083 132.260 72.542 C 131.804 72.037,131.667 71.923,131.667 72.052 M213.667 73.977 C 213.667 74.128,212.404 74.165,208.432 74.130 C 205.554 74.104,203.233 74.140,203.276 74.208 C 203.402 74.413,213.630 74.362,213.757 74.156 C 213.817 74.058,213.822 73.933,213.767 73.878 C 213.712 73.823,213.667 73.867,213.667 73.977 M258.234 73.999 C 258.128 74.105,253.263 74.180,244.659 74.208 L 231.250 74.252 244.688 74.293 C 256.463 74.328,258.152 74.302,258.333 74.083 C 258.565 73.804,258.492 73.742,258.234 73.999 M95.644 74.211 C 95.715 74.281,97.755 74.319,100.178 74.294 L 104.583 74.250 100.050 74.166 C 97.556 74.121,95.574 74.141,95.644 74.211 M140.417 74.167 L 134.083 74.256 140.458 74.295 C 144.623 74.320,146.833 74.276,146.833 74.167 C 146.833 74.075,146.815 74.017,146.792 74.039 C 146.769 74.060,143.900 74.118,140.417 74.167 M49.279 74.292 C 52.870 74.317,58.795 74.317,62.446 74.292 C 66.097 74.267,63.158 74.246,55.917 74.246 C 48.675 74.246,45.688 74.267,49.279 74.292 M151.208 74.291 C 152.652 74.319,155.015 74.319,156.458 74.291 C 157.902 74.264,156.721 74.241,153.833 74.241 C 150.946 74.241,149.765 74.264,151.208 74.291 M281.221 74.292 C 286.705 74.316,295.630 74.316,301.055 74.292 C 306.479 74.267,301.992 74.247,291.083 74.247 C 280.175 74.247,275.737 74.267,281.221 74.292 M342.625 74.292 C 346.315 74.317,352.352 74.317,356.042 74.292 C 359.731 74.267,356.712 74.246,349.333 74.246 C 341.954 74.246,338.935 74.267,342.625 74.292 " stroke="none" fill="#ff0000" fill-rule="evenodd"></path><path id="path2" d="M375.294 28.951 C 375.501 28.991,375.801 28.990,375.960 28.948 C 376.120 28.906,375.950 28.874,375.583 28.875 C 375.217 28.877,375.086 28.911,375.294 28.951 M95.581 51.667 C 95.581 63.996,95.601 69.040,95.625 62.875 C 95.649 56.710,95.649 46.623,95.625 40.458 C 95.601 34.294,95.581 39.337,95.581 51.667 M266.914 49.917 C 266.914 61.283,266.934 65.909,266.958 60.195 C 266.983 54.482,266.983 45.182,266.958 39.529 C 266.934 33.875,266.914 38.550,266.914 49.917 M144.000 33.583 C 144.311 33.904,144.603 34.167,144.649 34.167 C 144.695 34.167,144.478 33.904,144.167 33.583 C 143.856 33.262,143.564 33.000,143.518 33.000 C 143.472 33.000,143.689 33.262,144.000 33.583 M222.333 62.250 C 222.644 62.571,222.936 62.833,222.982 62.833 C 223.028 62.833,222.811 62.571,222.500 62.250 C 222.189 61.929,221.897 61.667,221.851 61.667 C 221.805 61.667,222.022 61.929,222.333 62.250 M26.333 67.052 C 26.333 67.081,26.577 67.325,26.875 67.594 L 27.417 68.083 26.927 67.542 C 26.471 67.037,26.333 66.923,26.333 67.052 " stroke="none" fill="#ff0612" fill-rule="evenodd"></path><path id="path3" d="M275.708 47.708 L 275.667 66.167 295.625 66.126 L 315.583 66.085 295.709 66.042 L 275.835 65.999 275.792 47.624 L 275.749 29.250 275.708 47.708 M49.554 37.292 C 53.113 37.317,58.888 37.317,62.387 37.292 C 65.887 37.266,62.975 37.246,55.917 37.246 C 48.858 37.246,45.995 37.267,49.554 37.292 M111.638 37.292 C 115.609 37.317,122.059 37.317,125.971 37.292 C 129.883 37.267,126.633 37.246,118.750 37.246 C 110.867 37.246,107.666 37.267,111.638 37.292 M238.054 37.292 C 241.613 37.317,247.388 37.317,250.887 37.292 C 254.387 37.266,251.475 37.246,244.417 37.246 C 237.358 37.246,234.495 37.267,238.054 37.292 M342.863 37.292 C 346.316 37.317,352.016 37.317,355.529 37.292 C 359.042 37.266,356.217 37.246,349.250 37.246 C 342.283 37.246,339.409 37.266,342.863 37.292 M130.292 51.623 C 130.773 51.657,131.560 51.657,132.042 51.623 C 132.523 51.589,132.129 51.562,131.167 51.562 C 130.204 51.562,129.810 51.589,130.292 51.623 M49.387 66.125 C 52.946 66.150,58.721 66.150,62.221 66.125 C 65.720 66.100,62.808 66.079,55.750 66.079 C 48.692 66.079,45.828 66.100,49.387 66.125 M239.458 66.125 C 243.790 66.150,250.877 66.150,255.208 66.125 C 259.540 66.100,255.996 66.080,247.333 66.080 C 238.671 66.080,235.127 66.100,239.458 66.125 M344.279 66.125 C 348.512 66.150,355.487 66.150,359.779 66.125 C 364.071 66.100,360.608 66.080,352.083 66.080 C 343.558 66.080,340.046 66.100,344.279 66.125 " stroke="none" fill="#ff0d15" fill-rule="evenodd"></path><path id="path4" d="M176.137 58.125 C 179.283 58.150,184.383 58.150,187.471 58.125 C 190.558 58.100,187.983 58.079,181.750 58.079 C 175.517 58.079,172.991 58.100,176.137 58.125 " stroke="none" fill="#ff0e0e" fill-rule="evenodd"></path></g></svg>