<svg id="svg" version="1.1" width="400" height="400" viewBox="0 0 400 400" xmlns="http://www.w3.org/2000/svg" xmlns:xlink="http://www.w3.org/1999/xlink" ><g id="svgg"><path id="path0" d="" stroke="none" fill="#000000" fill-rule="evenodd"></path><path id="path1" d="M282.281 120.163 C 282.677 120.693,283.062 120.957,283.138 120.750 C 283.382 120.083,282.844 119.200,282.194 119.200 C 281.643 119.200,281.654 119.323,282.281 120.163 M291.200 123.951 C 291.200 124.144,291.456 124.514,291.769 124.774 C 292.235 125.161,292.298 125.098,292.122 124.423 C 291.912 123.619,291.200 123.255,291.200 123.951 M77.592 153.810 C 76.844 154.711,77.278 154.815,78.170 153.948 C 78.593 153.537,78.751 153.200,78.519 153.200 C 78.287 153.200,77.870 153.474,77.592 153.810 M333.902 183.000 C 334.007 183.550,334.162 184.000,334.247 184.000 C 334.331 184.000,334.400 183.550,334.400 183.000 C 334.400 182.450,334.245 182.000,334.055 182.000 C 333.866 182.000,333.797 182.450,333.902 183.000 M100.928 200.000 C 100.928 201.430,101.001 202.015,101.089 201.300 C 101.178 200.585,101.178 199.415,101.089 198.700 C 101.001 197.985,100.928 198.570,100.928 200.000 M331.680 226.480 C 331.116 227.044,331.053 227.600,331.553 227.600 C 331.748 227.600,332.001 227.240,332.116 226.800 C 332.360 225.866,332.322 225.838,331.680 226.480 M265.000 248.706 C 264.636 248.974,264.248 250.000,264.511 250.000 C 264.572 250.000,264.930 249.640,265.307 249.200 C 265.977 248.417,265.794 248.123,265.000 248.706 M142.254 251.398 C 142.381 251.726,142.645 251.896,142.842 251.774 C 143.407 251.425,143.260 250.800,142.613 250.800 C 142.256 250.800,142.115 251.035,142.254 251.398 M83.613 254.656 C 83.631 255.144,84.757 256.576,84.961 256.371 C 85.055 256.277,84.787 255.775,84.366 255.256 C 83.945 254.736,83.606 254.466,83.613 254.656 M94.800 266.427 C 94.800 266.866,95.064 267.326,95.387 267.450 C 96.460 267.862,96.611 267.411,95.700 266.514 C 94.830 265.658,94.800 265.655,94.800 266.427 M275.860 282.333 C 275.323 282.927,275.306 283.067,275.769 283.067 C 276.084 283.067,276.428 282.737,276.533 282.333 C 276.639 281.930,276.680 281.600,276.625 281.600 C 276.569 281.600,276.225 281.930,275.860 282.333 " stroke="none" fill="#990000" fill-rule="evenodd"></path><path id="path2" d="M131.600 114.763 C 130.983 114.929,130.551 115.371,130.472 115.916 C 130.345 116.796,128.709 117.057,124.478 116.873 C 123.784 116.843,123.609 117.002,123.769 117.517 C 124.168 118.798,123.452 119.150,120.191 119.276 C 117.230 119.391,116.991 119.465,116.872 120.300 C 116.754 121.134,115.703 121.503,114.237 121.226 C 114.037 121.189,113.725 121.392,113.543 121.679 C 113.272 122.106,113.211 122.106,113.206 121.676 C 113.203 121.388,113.005 121.273,112.768 121.420 C 112.530 121.567,112.443 122.118,112.575 122.644 C 112.809 123.574,112.748 123.600,110.381 123.600 C 108.164 123.600,107.968 123.669,108.189 124.366 C 108.465 125.236,107.977 125.648,106.452 125.834 C 104.200 126.109,103.796 126.298,103.672 127.136 C 103.574 127.801,103.268 128.000,102.345 128.000 C 101.358 128.000,101.188 128.132,101.382 128.744 C 101.672 129.659,100.970 130.232,99.440 130.328 C 98.123 130.411,97.200 131.038,97.200 131.849 C 97.200 132.377,96.739 132.561,95.730 132.437 C 95.472 132.405,95.146 132.564,95.007 132.789 C 94.867 133.015,94.938 133.200,95.164 133.200 C 95.390 133.200,95.465 133.485,95.332 133.834 C 95.136 134.344,95.023 134.363,94.750 133.934 C 94.540 133.602,94.410 133.573,94.406 133.857 C 94.403 134.108,93.950 134.426,93.400 134.564 C 92.634 134.756,92.400 135.075,92.400 135.923 C 92.400 136.869,92.239 137.029,91.300 137.016 C 90.391 137.003,90.199 137.173,90.194 138.000 C 90.190 138.790,89.960 139.027,89.094 139.127 C 88.236 139.226,88.000 139.463,88.000 140.227 C 88.000 140.987,87.790 141.200,87.043 141.200 C 86.080 141.200,85.600 141.858,85.600 143.177 C 85.600 143.731,85.365 143.844,84.542 143.687 C 83.573 143.502,83.502 143.576,83.693 144.573 C 83.859 145.444,83.708 145.750,82.939 146.101 C 82.280 146.401,81.841 147.078,81.546 148.247 C 81.226 149.519,80.897 149.987,80.258 150.078 C 79.658 150.163,79.362 150.531,79.273 151.300 C 79.204 151.905,78.902 152.400,78.602 152.400 C 77.587 152.400,76.800 153.635,76.800 155.229 C 76.800 156.619,76.690 156.800,75.843 156.800 C 74.854 156.800,74.098 157.833,74.893 158.098 C 75.180 158.193,75.211 158.455,74.981 158.824 C 74.783 159.141,74.559 159.847,74.484 160.393 C 74.326 161.543,73.553 162.171,73.132 161.490 C 72.804 160.959,72.294 161.939,72.420 162.859 C 72.611 164.242,72.353 165.601,71.900 165.606 C 71.625 165.609,71.130 165.783,70.800 165.991 C 70.242 166.344,70.167 166.864,70.033 171.300 C 70.015 171.905,69.795 172.400,69.544 172.400 C 68.581 172.400,68.025 173.855,68.013 176.405 C 68.002 178.694,67.893 179.058,67.122 179.405 C 65.737 180.028,65.672 180.947,65.663 200.240 C 65.654 218.858,65.763 220.308,67.205 220.685 C 67.920 220.872,68.001 221.239,68.006 224.347 C 68.009 226.246,68.146 227.590,68.309 227.334 C 69.092 226.103,70.099 227.903,70.125 230.581 C 70.141 232.285,70.311 233.200,70.613 233.200 C 71.637 233.200,72.478 234.769,72.539 236.794 C 72.592 238.557,72.700 238.814,73.324 238.651 C 74.191 238.425,74.465 239.021,74.542 241.298 C 74.583 242.491,74.779 243.016,75.200 243.054 C 75.530 243.083,76.025 243.128,76.300 243.154 C 76.598 243.181,76.800 243.777,76.800 244.626 C 76.800 246.160,77.388 247.600,78.014 247.600 C 78.226 247.600,78.400 247.300,78.400 246.933 C 78.400 245.255,79.195 247.278,79.265 249.134 C 79.292 249.852,79.478 250.021,80.072 249.865 C 80.838 249.665,81.859 251.258,81.420 251.968 C 81.144 252.414,82.360 254.000,82.977 254.000 C 83.560 254.000,85.041 255.991,84.873 256.549 C 84.815 256.741,85.024 256.800,85.338 256.679 C 85.731 256.528,85.853 256.677,85.727 257.158 C 85.627 257.542,85.861 258.113,86.249 258.428 C 86.767 258.848,86.869 258.859,86.635 258.470 C 86.372 258.034,86.461 258.032,87.140 258.455 C 87.593 258.738,88.016 259.426,88.082 259.985 C 88.164 260.687,88.477 261.039,89.100 261.128 C 89.595 261.198,90.023 261.423,90.050 261.628 C 90.078 261.833,90.123 262.225,90.150 262.500 C 90.178 262.775,90.684 263.056,91.276 263.124 C 92.106 263.220,92.380 263.493,92.476 264.321 C 92.557 265.019,92.879 265.445,93.400 265.543 C 93.840 265.625,94.332 265.897,94.494 266.146 C 94.712 266.482,94.789 266.481,94.794 266.140 C 94.797 265.886,95.340 266.183,96.000 266.800 C 96.660 267.417,97.200 268.097,97.200 268.312 C 97.200 269.132,98.706 269.849,100.686 269.970 C 100.953 269.987,101.376 270.382,101.626 270.848 C 101.979 271.508,101.970 271.629,101.588 271.393 C 101.270 271.196,101.161 271.284,101.281 271.643 C 101.382 271.947,101.721 272.215,102.033 272.237 C 103.395 272.335,103.600 272.432,103.600 272.976 C 103.600 273.784,104.317 274.146,106.400 274.390 C 107.633 274.534,108.203 274.789,108.211 275.200 C 108.230 276.277,108.859 276.853,109.940 276.784 C 111.931 276.655,112.344 276.800,112.472 277.672 C 112.580 278.407,112.907 278.567,114.546 278.689 C 116.249 278.816,118.603 280.000,117.152 280.000 C 116.869 280.000,116.988 280.258,117.424 280.587 C 117.923 280.965,119.163 281.179,120.900 281.187 C 123.473 281.199,123.600 281.245,123.600 282.152 C 123.600 283.069,123.715 283.105,126.767 283.161 C 129.690 283.214,130.033 283.310,131.208 284.408 L 132.482 285.598 200.004 285.594 L 267.525 285.591 268.783 284.416 C 269.917 283.357,270.332 283.233,273.001 283.163 C 274.907 283.112,275.933 282.927,275.881 282.642 C 275.836 282.399,276.025 282.245,276.300 282.300 C 276.575 282.355,276.755 282.190,276.700 281.934 C 276.589 281.414,279.026 280.758,279.868 281.081 C 281.175 281.583,283.200 280.793,283.200 279.782 C 283.200 278.824,283.517 278.706,285.811 278.809 C 285.927 278.815,286.428 278.347,286.925 277.769 C 287.617 276.965,288.198 276.720,289.414 276.720 C 291.394 276.721,292.400 276.203,292.400 275.186 C 292.400 274.453,292.987 274.200,294.295 274.369 C 295.100 274.473,296.400 273.619,296.400 272.986 C 296.400 272.664,296.625 272.379,296.900 272.354 C 297.175 272.328,297.670 272.283,298.000 272.254 C 298.330 272.224,298.624 271.930,298.654 271.600 C 298.683 271.270,298.728 270.775,298.754 270.500 C 298.779 270.225,299.256 270.000,299.814 270.000 C 301.046 270.000,302.800 268.915,302.800 268.154 C 302.800 267.849,303.147 267.600,303.571 267.600 C 303.995 267.600,304.424 267.285,304.524 266.900 C 304.693 266.253,304.711 266.255,304.754 266.924 C 304.815 267.882,305.600 267.375,305.600 266.376 C 305.600 265.875,305.875 265.600,306.376 265.600 C 306.803 265.600,307.276 265.401,307.426 265.157 C 307.611 264.859,307.391 264.794,306.750 264.959 L 305.800 265.204 306.717 264.734 C 307.221 264.475,307.541 264.024,307.429 263.732 C 307.293 263.378,307.556 263.200,308.213 263.200 C 308.756 263.200,309.203 262.975,309.206 262.700 C 309.210 262.367,309.342 262.400,309.600 262.800 C 309.896 263.257,309.989 263.100,309.994 262.137 C 309.999 261.115,310.138 260.911,310.728 261.065 C 311.128 261.170,311.653 261.018,311.894 260.728 C 312.342 260.188,312.400 259.997,312.400 259.068 C 312.400 258.774,312.802 258.551,313.300 258.568 C 314.035 258.594,314.187 258.403,314.128 257.523 C 314.072 256.687,314.198 256.501,314.693 256.691 C 315.091 256.844,315.231 256.774,315.065 256.505 C 314.899 256.236,315.079 256.148,315.548 256.270 C 316.356 256.482,317.082 254.780,316.550 253.920 C 316.387 253.655,316.459 253.589,316.728 253.755 C 317.368 254.151,318.564 252.620,318.800 251.100 C 318.963 250.050,319.184 249.812,320.000 249.807 C 320.759 249.802,321.011 249.580,321.046 248.887 C 321.071 248.385,321.161 247.935,321.246 247.887 C 321.331 247.839,321.760 247.601,322.200 247.359 C 322.806 247.024,323.029 246.426,323.120 244.886 C 323.234 242.955,323.293 242.858,324.320 242.927 C 325.346 242.996,325.404 242.902,325.490 241.030 C 325.581 239.043,326.077 238.301,327.064 238.680 C 327.380 238.801,327.600 238.612,327.600 238.219 C 327.600 237.836,327.413 237.669,327.160 237.825 C 326.840 238.022,326.840 237.872,327.160 237.275 C 327.402 236.822,327.600 235.991,327.600 235.426 C 327.600 234.689,327.811 234.400,328.351 234.400 C 329.560 234.400,329.916 233.573,329.955 230.669 C 329.992 227.870,330.205 227.032,330.786 227.391 C 330.967 227.504,331.224 227.315,331.355 226.972 C 331.487 226.630,331.741 226.440,331.921 226.551 C 332.101 226.662,332.274 225.391,332.306 223.727 C 332.355 221.138,332.486 220.615,333.209 220.109 C 333.685 219.776,333.957 219.264,333.831 218.938 C 333.707 218.614,333.784 218.466,334.005 218.603 C 334.520 218.922,334.543 185.093,334.028 183.297 C 333.798 182.497,333.798 182.000,334.028 182.000 C 334.670 182.000,334.437 181.357,333.385 180.221 C 332.514 179.282,332.367 178.745,332.351 176.463 C 332.326 172.929,332.146 172.400,330.973 172.400 C 329.968 172.400,329.739 171.257,329.989 167.490 C 330.049 166.581,329.840 166.302,328.831 165.951 C 327.656 165.541,327.342 164.808,327.556 162.963 C 327.584 162.722,327.200 162.316,326.703 162.060 L 325.800 161.596 326.750 161.841 C 327.391 162.006,327.611 161.941,327.426 161.643 C 327.276 161.399,326.803 161.200,326.376 161.200 C 325.713 161.200,325.600 160.913,325.600 159.224 C 325.600 158.137,325.389 157.117,325.132 156.958 C 324.816 156.762,324.748 156.888,324.924 157.347 C 325.162 157.967,325.100 157.965,324.205 157.313 C 323.497 156.798,323.220 156.212,323.206 155.200 C 323.184 153.538,322.881 152.995,321.784 152.654 C 321.217 152.477,320.973 152.065,320.984 151.300 C 320.997 150.393,320.807 150.178,319.900 150.073 C 319.215 149.995,318.800 149.707,318.800 149.311 C 318.800 148.962,318.374 148.117,317.853 147.434 C 317.332 146.751,316.766 145.564,316.596 144.796 C 316.330 143.595,316.243 143.512,315.971 144.200 C 315.704 144.878,315.652 144.893,315.628 144.300 C 315.613 143.915,315.330 143.600,315.000 143.600 C 314.670 143.600,314.400 143.319,314.400 142.976 C 314.400 142.633,314.220 142.464,314.000 142.600 C 313.780 142.736,313.600 142.657,313.600 142.424 C 313.600 142.191,313.791 142.000,314.024 142.000 C 314.257 142.000,314.331 141.811,314.188 141.581 C 314.046 141.350,313.545 141.215,313.076 141.281 C 312.404 141.375,312.221 141.188,312.212 140.400 C 312.202 139.606,311.994 139.398,311.204 139.392 C 310.545 139.387,310.158 139.126,310.061 138.621 C 309.871 137.637,309.029 136.800,308.229 136.800 C 307.630 136.800,307.435 136.369,307.563 135.330 C 307.631 134.779,306.188 134.237,305.608 134.595 C 305.379 134.737,305.309 134.582,305.443 134.231 C 305.736 133.468,304.567 132.152,304.264 132.904 C 304.105 133.296,304.057 133.296,304.032 132.900 C 304.014 132.625,303.773 132.400,303.496 132.400 C 303.219 132.400,302.768 132.040,302.493 131.600 C 302.218 131.160,301.725 130.800,301.397 130.800 C 301.068 130.800,300.800 130.599,300.800 130.353 C 300.800 130.108,300.458 129.996,300.040 130.105 C 299.524 130.240,299.006 129.934,298.428 129.152 C 297.959 128.518,297.324 128.000,297.016 128.000 C 296.708 128.000,296.398 127.595,296.328 127.100 C 296.231 126.419,295.940 126.203,295.130 126.213 C 294.541 126.221,294.164 126.057,294.292 125.850 C 294.424 125.637,294.157 125.570,293.677 125.696 C 292.779 125.931,291.803 125.152,292.303 124.599 C 292.467 124.419,292.374 124.402,292.097 124.561 C 291.814 124.724,291.502 124.611,291.384 124.303 C 291.263 123.986,290.475 123.714,289.516 123.657 C 287.406 123.533,287.267 123.432,287.500 122.210 C 287.688 121.225,287.636 121.200,285.404 121.200 C 283.439 121.200,283.004 121.059,282.329 120.200 C 281.648 119.334,281.224 119.200,279.171 119.200 C 277.067 119.200,276.800 119.110,276.800 118.400 C 276.800 117.907,276.531 117.598,276.100 117.594 C 275.503 117.589,275.488 117.532,276.000 117.206 C 276.466 116.910,276.376 116.839,275.600 116.886 C 271.820 117.115,269.980 116.798,269.621 115.856 C 269.390 115.246,268.822 114.824,268.019 114.664 C 266.329 114.326,132.860 114.423,131.600 114.763 M256.800 148.169 C 256.800 149.373,257.910 149.880,260.643 149.927 C 263.068 149.968,263.437 150.084,264.200 151.041 C 265.028 152.080,265.457 152.192,269.257 152.369 C 269.618 152.386,270.026 152.850,270.164 153.400 C 270.359 154.176,270.672 154.400,271.561 154.400 C 272.368 154.400,272.768 154.635,272.915 155.195 C 273.148 156.087,274.876 156.899,275.793 156.547 C 276.156 156.408,276.503 156.610,276.672 157.058 C 277.024 157.995,278.005 158.771,278.857 158.787 C 279.650 158.803,280.151 159.878,279.478 160.119 C 278.851 160.344,279.166 160.636,280.400 160.977 C 281.201 161.198,281.281 161.162,280.800 160.796 C 280.285 160.404,280.283 160.362,280.789 160.499 C 281.113 160.587,281.479 161.096,281.602 161.630 C 281.725 162.163,282.195 162.765,282.647 162.966 C 283.098 163.168,283.632 163.702,283.834 164.153 C 284.035 164.605,284.637 165.075,285.170 165.198 C 285.704 165.321,286.213 165.687,286.301 166.011 C 286.438 166.517,286.396 166.515,286.004 166.000 C 285.638 165.519,285.602 165.599,285.823 166.400 C 286.179 167.688,286.376 167.885,286.732 167.310 C 287.139 166.651,287.756 167.179,288.380 168.721 C 288.716 169.551,289.116 169.964,289.457 169.833 C 289.756 169.719,290.020 169.754,290.045 169.913 C 290.069 170.071,290.159 170.812,290.245 171.559 C 290.418 173.080,291.023 174.000,291.849 174.000 C 292.360 174.000,292.582 174.717,292.432 175.889 C 292.398 176.157,292.827 176.492,293.385 176.632 C 294.359 176.876,294.688 177.902,294.431 179.895 C 294.338 180.612,295.171 182.102,296.061 182.812 C 296.681 183.307,296.832 183.960,296.849 186.212 C 296.871 189.164,297.226 190.000,298.456 190.000 C 299.183 190.000,299.209 190.416,299.107 200.100 L 299.000 210.200 298.101 210.328 C 297.278 210.445,296.628 211.614,296.823 212.626 C 297.132 214.231,296.734 217.200,296.210 217.200 C 295.414 217.200,294.427 219.203,294.572 220.525 C 294.693 221.624,293.148 224.214,292.661 223.728 C 292.518 223.584,292.400 224.037,292.400 224.733 C 292.400 225.543,292.201 226.000,291.849 226.000 C 291.011 226.000,290.319 227.048,290.206 228.490 C 290.127 229.483,289.881 229.839,289.153 230.011 C 288.630 230.135,288.184 230.498,288.162 230.818 C 288.038 232.608,287.978 232.719,287.245 232.528 C 286.830 232.419,286.350 232.557,286.180 232.833 C 285.959 233.190,286.068 233.260,286.555 233.073 C 286.963 232.916,287.142 232.970,286.997 233.205 C 286.863 233.422,286.493 233.600,286.176 233.600 C 285.859 233.600,285.600 233.870,285.600 234.200 C 285.600 234.531,285.245 234.800,284.808 234.800 C 284.319 234.800,283.928 235.146,283.788 235.704 C 283.664 236.201,283.030 236.912,282.381 237.285 C 281.731 237.658,281.200 238.241,281.200 238.581 C 281.200 238.970,280.838 239.200,280.227 239.200 C 279.462 239.200,279.226 239.436,279.127 240.300 C 279.029 241.151,278.798 241.389,278.109 241.353 C 277.619 241.327,277.315 241.462,277.433 241.653 C 277.551 241.844,277.462 242.000,277.236 242.000 C 277.010 242.000,276.922 242.252,277.040 242.560 C 277.339 243.339,276.597 243.697,274.733 243.671 C 273.360 243.652,273.076 243.803,272.670 244.765 C 272.326 245.582,271.968 245.845,271.334 245.748 C 270.797 245.666,269.992 246.061,269.214 246.787 C 268.264 247.674,267.505 247.987,266.080 248.079 C 264.578 248.176,264.121 248.381,263.805 249.100 C 263.399 250.026,262.713 250.190,259.932 250.025 C 258.109 249.916,256.800 250.580,256.800 251.614 C 256.800 252.392,256.194 252.400,200.000 252.400 C 160.290 252.400,143.200 252.273,143.200 251.976 C 143.200 251.743,143.039 251.652,142.842 251.774 C 142.645 251.896,142.381 251.726,142.254 251.398 C 142.107 251.014,142.272 250.791,142.713 250.775 C 143.178 250.757,143.078 250.621,142.400 250.350 C 141.850 250.131,140.770 249.987,140.000 250.032 C 137.286 250.187,136.598 250.019,136.195 249.102 C 135.796 248.195,134.400 247.603,134.400 248.341 C 134.400 248.561,134.715 248.824,135.100 248.924 C 135.756 249.096,135.755 249.110,135.087 249.154 C 134.696 249.179,134.271 248.930,134.145 248.600 C 134.018 248.270,133.439 247.997,132.857 247.993 C 132.258 247.989,131.392 247.556,130.858 246.993 C 130.278 246.381,129.471 246.000,128.758 246.000 C 128.021 246.000,127.600 245.792,127.600 245.429 C 127.600 244.388,126.380 243.600,124.771 243.600 C 123.280 243.600,123.200 243.537,123.200 242.357 C 123.200 241.428,123.052 241.171,122.612 241.340 C 122.288 241.464,121.761 241.304,121.440 240.983 C 121.119 240.662,120.675 240.400,120.452 240.400 C 120.229 240.400,119.937 240.222,119.803 240.005 C 119.663 239.778,119.823 239.711,120.179 239.847 C 120.521 239.978,120.800 239.886,120.800 239.643 C 120.800 239.399,120.350 239.200,119.800 239.200 C 119.195 239.200,118.800 238.972,118.800 238.623 C 118.800 237.947,117.223 236.738,116.735 237.040 C 116.551 237.154,116.400 236.913,116.400 236.504 C 116.400 235.569,115.652 234.800,114.744 234.800 C 114.361 234.800,113.919 234.592,113.762 234.338 C 113.585 234.052,113.652 233.985,113.938 234.162 C 114.552 234.541,114.537 233.497,113.920 232.880 C 113.656 232.616,113.126 232.400,112.743 232.400 C 112.269 232.400,112.094 232.152,112.195 231.626 C 112.375 230.691,111.443 229.821,110.605 230.143 C 110.272 230.270,109.986 230.156,109.969 229.887 C 109.847 227.939,109.228 226.463,108.427 226.209 C 108.024 226.081,107.589 225.443,107.458 224.788 C 107.288 223.940,106.988 223.600,106.410 223.600 C 105.768 223.600,105.595 223.330,105.574 222.300 C 105.504 218.698,105.091 217.640,103.551 217.114 C 103.367 217.051,103.190 215.710,103.158 214.133 C 103.106 211.560,103.023 211.280,102.350 211.410 C 101.402 211.592,101.356 210.922,102.300 210.676 C 102.852 210.532,102.819 210.483,102.142 210.446 C 101.354 210.404,101.270 210.132,101.102 207.100 C 100.805 201.756,101.141 190.220,101.597 190.068 C 101.821 189.993,101.916 189.787,101.807 189.611 C 101.698 189.435,101.922 189.315,102.304 189.345 C 102.902 189.392,103.015 188.960,103.109 186.273 C 103.207 183.463,103.324 183.055,104.267 182.244 C 105.255 181.394,105.457 180.719,105.560 177.928 C 105.590 177.136,105.835 176.822,106.500 176.728 C 107.186 176.630,107.429 176.296,107.524 175.319 C 107.603 174.497,107.912 173.955,108.387 173.804 C 109.322 173.507,109.836 172.489,109.954 170.700 C 109.985 170.224,110.334 170.000,111.043 170.000 C 111.821 170.000,112.025 169.842,111.847 169.379 C 111.693 168.977,111.770 168.858,112.068 169.042 C 112.372 169.230,112.458 169.065,112.324 168.551 C 112.099 167.692,113.027 166.480,113.294 167.283 C 113.547 168.041,114.400 167.223,114.400 166.223 C 114.400 165.619,114.690 165.217,115.230 165.076 C 115.686 164.957,116.157 164.486,116.276 164.030 C 116.396 163.573,116.646 163.200,116.833 163.200 C 117.020 163.200,117.725 162.660,118.400 162.000 C 119.075 161.340,119.852 160.800,120.126 160.800 C 120.400 160.800,120.834 160.245,121.090 159.566 C 121.476 158.543,121.707 158.380,122.437 158.612 C 123.195 158.852,123.286 158.770,123.090 158.021 C 122.868 157.174,124.133 156.220,124.889 156.664 C 125.349 156.934,127.200 155.564,127.200 154.954 C 127.200 154.410,127.886 154.211,129.327 154.337 C 129.872 154.384,129.993 154.208,129.811 153.634 C 129.485 152.606,130.063 152.321,132.717 152.203 C 134.584 152.120,135.091 151.931,135.787 151.057 C 136.517 150.142,136.943 150.002,139.210 149.937 C 141.856 149.861,143.200 149.473,143.200 148.786 C 143.200 148.574,142.919 148.400,142.576 148.400 C 142.233 148.400,142.063 148.222,142.197 148.005 C 142.632 147.300,256.800 147.463,256.800 148.169 M78.170 153.948 C 77.746 154.360,77.329 154.634,77.243 154.558 C 76.991 154.335,78.057 153.200,78.519 153.200 C 78.751 153.200,78.593 153.537,78.170 153.948 M265.307 249.200 C 264.930 249.640,264.572 250.000,264.511 250.000 C 264.248 250.000,264.636 248.974,265.000 248.706 C 265.794 248.123,265.977 248.417,265.307 249.200 " stroke="none" fill="#ea1b22" fill-rule="evenodd"></path></g></svg>